<?xml version="1.0" encoding="UTF-8" standalone="no"?>
<!-- Created with Inkscape (http://www.inkscape.org/) -->

<svg
   xmlns:dc="http://purl.org/dc/elements/1.1/"
   xmlns:cc="http://creativecommons.org/ns#"
   xmlns:rdf="http://www.w3.org/1999/02/22-rdf-syntax-ns#"
   xmlns:svg="http://www.w3.org/2000/svg"
   xmlns="http://www.w3.org/2000/svg"
   xmlns:sodipodi="http://sodipodi.sourceforge.net/DTD/sodipodi-0.dtd"
   xmlns:inkscape="http://www.inkscape.org/namespaces/inkscape"
   width="1052.3622"
   height="744.09448"
   id="svg2"
   version="1.1"
   inkscape:version="0.48.5 r10040"
   sodipodi:docname="logo.svg">
  <defs
     id="defs4">
    <linearGradient
       id="linearGradient5368">
      <stop
         style="stop-color:#9d9d9d;stop-opacity:1;"
         offset="0"
         id="stop5370" />
      <stop
         id="stop5376"
         offset="0.85106385"
         style="stop-color:#9d9d9d;stop-opacity:0.49803922;" />
      <stop
         style="stop-color:#9d9d9d;stop-opacity:0;"
         offset="1"
         id="stop5372" />
    </linearGradient>
  </defs>
  <sodipodi:namedview
     id="base"
     pagecolor="#ffffff"
     bordercolor="#666666"
     borderopacity="1.0"
     inkscape:pageopacity="0.0"
     inkscape:pageshadow="2"
     inkscape:zoom="0.98994949"
     inkscape:cx="397.42875"
     inkscape:cy="679.45405"
     inkscape:document-units="px"
     inkscape:current-layer="layer1"
     showgrid="false"
     inkscape:window-width="2556"
     inkscape:window-height="1401"
     inkscape:window-x="1920"
     inkscape:window-y="18"
     inkscape:window-maximized="0" />
  <metadata
     id="metadata7">
    <rdf:RDF>
      <cc:Work
         rdf:about="">
        <dc:format>image/svg+xml</dc:format>
        <dc:type
           rdf:resource="http://purl.org/dc/dcmitype/StillImage" />
        <dc:title></dc:title>
      </cc:Work>
    </rdf:RDF>
  </metadata>
  <g
     inkscape:label="Layer 1"
     inkscape:groupmode="layer"
     id="layer1"
     transform="translate(0,-308.2677)">
    <path
       style="fill:#9d9d9d;fill-opacity:1;fill-rule:evenodd;stroke:none;stroke-opacity:1;stroke-linejoin:round;stroke-width:1.39999999999999991;stroke-miterlimit:4;stroke-dasharray:none"
       d="m 157.15625,418.92395 c -76.530886,0 -138.59375,62.06286 -138.59375,138.59375 0,76.53089 62.062864,138.5625 138.59375,138.5625 53.90046,0 100.61811,-30.78221 123.53125,-75.71875 l 657.875,0 0,-121.4375 -655.8125,0 c -22.07463,-47.24679 -70.00167,-80 -125.59375,-80 z"
       id="path2985"
       inkscape:connector-curvature="0" />
    <g
       transform="scale(0.80956472,1.2352317)"
       style="font-size:136.31626892px;font-style:normal;font-weight:normal;line-height:125%;letter-spacing:0px;word-spacing:0px;fill:#ffffff;fill-opacity:1;stroke:none;font-family:Sans"
       id="text2991">
      <path
         d="m 362.92326,502.24875 19.70196,-98.5098 40.06953,0 c 12.33583,9e-5 20.76684,1.33131 25.29306,3.99364 4.52602,2.70689 6.78908,7.80987 6.78919,15.30895 -1.1e-4,12.33598 -4.45967,22.18695 -13.3787,29.55294 -8.96358,7.36609 -21.0998,11.04911 -36.40869,11.04908 l -14.24399,0 -7.72103,38.60519 -20.10133,0 m 30.55135,-52.11701 9.6513,0 c 9.36281,5e-5 16.68448,-1.90802 21.96502,-5.72422 5.32478,-3.86046 7.9872,-9.11875 7.98729,-15.77488 -9e-5,-4.92541 -1.70847,-8.09814 -5.12518,-9.51818 -2.92874,-1.24238 -7.69892,-1.86361 -14.31054,-1.8637 l -13.57838,0 -6.58951,32.88098"
         style="font-style:italic;font-variant:normal;font-weight:bold;font-stretch:normal;fill:#ffffff;font-family:Luxi Sans;-inkscape-font-specification:Luxi Sans"
         id="path5449" />
      <path
         d="m 511.75293,485.94138 -2.72898,13.84462 c -9.00794,2.75118 -17.43895,4.12676 -25.29306,4.12677 -21.61006,-1e-5 -32.41506,-9.9841 -32.41505,-29.95231 -10e-6,-12.91273 4.08237,-23.89523 12.24716,-32.94754 8.12037,-9.0078 18.06009,-13.51174 29.81919,-13.51181 15.84137,7e-5 23.76208,8.07609 23.76216,24.22808 -8e-5,4.30431 -0.71006,10.27258 -2.12994,17.90483 l -42.93164,0 c -0.2219,2.17434 -0.33284,3.74961 -0.3328,4.7258 -4e-5,10.78285 5.99042,16.17426 17.97138,16.17425 6.07915,1e-5 13.42301,-1.53088 22.03158,-4.59269 m -37.67334,-27.423 23.76216,0 c 0.66555,-3.4611 0.99835,-6.45633 0.99841,-8.98569 -6e-5,-6.47851 -2.61811,-9.71779 -7.85416,-9.71786 -7.18859,7e-5 -12.82406,6.23458 -16.90641,18.70355"
         style="font-style:italic;font-variant:normal;font-weight:bold;font-stretch:normal;fill:#ffffff;font-family:Luxi Sans;-inkscape-font-specification:Luxi Sans"
         id="path5451" />
      <path
         d="m 526.66252,502.24875 14.64335,-73.08363 19.70196,0 -2.46275,12.11405 c 5.81292,-9.18531 12.15837,-13.77799 19.03636,-13.77806 1.06491,7e-5 2.17425,0.13319 3.32803,0.39936 l -3.52771,17.57202 c -2.3075,-1.02054 -4.30432,-1.53084 -5.99046,-1.5309 -5.01429,6e-5 -10.16165,3.41684 -15.44208,10.25035 l -9.58474,48.05681 -19.70196,0"
         style="font-style:italic;font-variant:normal;font-weight:bold;font-stretch:normal;fill:#ffffff;font-family:Luxi Sans;-inkscape-font-specification:Luxi Sans"
         id="path5453" />
      <path
         d="m 576.25023,502.24875 14.64335,-73.08363 19.70196,0 -2.39619,12.11405 c 8.03161,-9.18531 16.46262,-13.77799 25.29306,-13.77806 5.10291,7e-5 9.0078,1.35347 11.71468,4.0602 2.17423,2.13001 3.57201,5.43585 4.19332,9.91754 3.4167,-4.21545 6.74473,-7.34379 9.9841,-9.38506 4.79227,-3.06171 9.96182,-4.59261 15.50864,-4.59268 9.93961,7e-5 14.90947,4.83681 14.90959,14.51023 -1.2e-4,2.83997 -0.28855,5.70208 -0.86529,8.58632 l -10.38346,51.65109 -19.70196,0 9.38505,-46.79216 c 0.66551,-3.32798 0.99831,-5.81291 0.99841,-7.45479 -10e-5,-3.32798 -1.77505,-4.992 -5.32485,-4.99205 -5.36932,5e-5 -11.07135,3.86057 -17.10609,11.58155 l -9.51818,47.65745 -19.70196,0 9.31849,-46.79216 c 0.70992,-3.54985 1.06491,-6.03478 1.06497,-7.45479 -6e-5,-3.32798 -1.77501,-4.992 -5.32485,-4.99205 -5.36928,5e-5 -11.07131,3.86057 -17.1061,11.58155 l -9.58473,47.65745 -19.70196,0"
         style="font-style:italic;font-variant:normal;font-weight:bold;font-stretch:normal;fill:#ffffff;font-family:Luxi Sans;-inkscape-font-specification:Luxi Sans"
         id="path5455" />
      <path
         d="m 696.7916,502.24875 14.64335,-73.08363 19.70196,0 -14.64335,73.08363 -19.70196,0 m 17.1061,-85.39735 3.26147,-16.44049 19.70196,0 -3.26147,16.44049 -19.70196,0"
         style="font-style:italic;font-variant:normal;font-weight:bold;font-stretch:normal;fill:#ffffff;font-family:Luxi Sans;-inkscape-font-specification:Luxi Sans"
         id="path5457" />
      <path
         d="m 734.19873,499.85256 2.92867,-14.3771 c 9.58471,4.0824 17.8826,6.12359 24.89369,6.12358 5.14732,10e-6 9.11877,-0.79872 11.91436,-2.39618 2.75113,-1.59745 4.12671,-3.81613 4.12676,-6.65607 -5e-5,-2.75115 -3.30589,-5.59107 -9.91754,-8.51977 l -6.05702,-2.66243 c -7.54357,-3.328 -12.4025,-6.05698 -14.57679,-8.18696 -2.21871,-2.1299 -3.32805,-5.23606 -3.32803,-9.31849 -2e-5,-8.0316 3.21708,-14.42142 9.6513,-19.16948 6.38979,-4.7923 15.08704,-7.18848 26.09178,-7.18855 6.65601,7e-5 14.39923,0.86536 23.22968,2.59586 l -2.72899,13.51182 c -9.40731,-2.52924 -16.48492,-3.79389 -21.23285,-3.79396 -4.6593,7e-5 -8.29795,0.73223 -10.91596,2.19651 -2.57372,1.46439 -3.86055,3.52777 -3.86051,6.19014 -4e-5,2.57373 3.03956,5.12522 9.11881,7.65448 l 5.25829,2.1965 c 8.12034,3.41682 13.48957,6.34549 16.10769,8.78601 2.83985,2.57371 4.25981,5.9683 4.25988,10.18378 -7e-5,7.85418 -3.57216,14.28837 -10.71627,19.3026 -7.18861,5.05861 -16.57366,7.58791 -28.15517,7.58792 -8.65291,-1e-5 -17.35016,-1.35341 -26.09178,-4.06021"
         style="font-style:italic;font-variant:normal;font-weight:bold;font-stretch:normal;fill:#ffffff;font-family:Luxi Sans;-inkscape-font-specification:Luxi Sans"
         id="path5459" />
      <path
         d="m 810.07791,499.85256 2.92867,-14.3771 c 9.58471,4.0824 17.8826,6.12359 24.89369,6.12358 5.14732,10e-6 9.11877,-0.79872 11.91436,-2.39618 2.75113,-1.59745 4.12671,-3.81613 4.12677,-6.65607 -6e-5,-2.75115 -3.3059,-5.59107 -9.91755,-8.51977 l -6.05702,-2.66243 c -7.54357,-3.328 -12.40249,-6.05698 -14.57679,-8.18696 -2.21871,-2.1299 -3.32805,-5.23606 -3.32803,-9.31849 -2e-5,-8.0316 3.21708,-14.42142 9.6513,-19.16948 6.38979,-4.7923 15.08704,-7.18848 26.09178,-7.18855 6.65601,7e-5 14.39923,0.86536 23.22968,2.59586 l -2.72899,13.51182 c -9.4073,-2.52924 -16.48492,-3.79389 -21.23285,-3.79396 -4.6593,7e-5 -8.29795,0.73223 -10.91595,2.19651 -2.57372,1.46439 -3.86056,3.52777 -3.86052,6.19014 -4e-5,2.57373 3.03956,5.12522 9.11881,7.65448 l 5.25829,2.1965 c 8.12034,3.41682 13.48957,6.34549 16.10769,8.78601 2.83985,2.57371 4.25981,5.9683 4.25988,10.18378 -7e-5,7.85418 -3.57216,14.28837 -10.71627,19.3026 -7.18861,5.05861 -16.57365,7.58791 -28.15517,7.58792 -8.65291,-1e-5 -17.35016,-1.35341 -26.09178,-4.06021"
         style="font-style:italic;font-variant:normal;font-weight:bold;font-stretch:normal;fill:#ffffff;font-family:Luxi Sans;-inkscape-font-specification:Luxi Sans"
         id="path5461" />
      <path
         d="m 886.35642,502.24875 14.64335,-73.08363 19.70196,0 -14.64335,73.08363 -19.70196,0 m 17.1061,-85.39735 3.26147,-16.44049 19.70196,0 -3.26147,16.44049 -19.70196,0"
         style="font-style:italic;font-variant:normal;font-weight:bold;font-stretch:normal;fill:#ffffff;font-family:Luxi Sans;-inkscape-font-specification:Luxi Sans"
         id="path5463" />
      <path
         d="m 972.55249,427.50111 c 9.45155,7e-5 16.79541,2.52938 22.03159,7.58791 5.23602,5.05868 7.85412,12.24722 7.85412,21.56566 0,13.31217 -4.39305,24.51654 -13.17898,33.61315 -8.78607,9.09663 -19.63545,13.64493 -32.54817,13.64494 -8.38668,-1e-5 -15.13149,-2.08557 -20.23444,-6.25671 -6.25672,-5.10297 -9.38507,-12.73526 -9.38506,-22.89687 -10e-6,-13.22335 4.3708,-24.40553 13.11245,-33.54658 8.78598,-9.14093 19.5688,-13.71143 32.34849,-13.7115 m -2.5293,12.31372 c -5.99051,7e-5 -11.16005,3.54996 -15.50864,10.64971 -4.34867,7.14423 -6.52298,15.4643 -6.52295,24.96026 -3e-5,10.78284 3.81611,16.17425 11.44844,16.17424 5.3248,10e-6 10.02842,-2.81772 14.11086,-8.45321 5.36917,-7.41039 8.05378,-16.41826 8.05385,-27.02363 -7e-5,-10.87152 -3.86059,-16.3073 -11.58156,-16.30737"
         style="font-style:italic;font-variant:normal;font-weight:bold;font-stretch:normal;fill:#ffffff;font-family:Luxi Sans;-inkscape-font-specification:Luxi Sans"
         id="path5465" />
      <path
         d="m 1008.229,502.24875 14.6434,-73.08363 19.7019,0 -2.4627,12.11405 c 9.6291,-9.18531 18.9254,-13.77799 27.8889,-13.77806 10.6053,7e-5 15.9079,4.83681 15.908,14.51023 -10e-5,2.61811 -0.3107,5.48021 -0.9318,8.58632 l -10.3169,51.65109 -19.702,0 9.3185,-46.79216 c 0.6212,-3.15049 0.9318,-5.43573 0.9319,-6.85575 -10e-5,-3.72734 -2.0857,-5.59104 -6.2568,-5.59109 -5.1917,5e-5 -11.6925,3.86057 -19.5022,11.58155 l -9.5182,47.65745 -19.702,0"
         style="font-style:italic;font-variant:normal;font-weight:bold;font-stretch:normal;fill:#ffffff;font-family:Luxi Sans;-inkscape-font-specification:Luxi Sans"
         id="path5467" />
      <path
         d="m 1090.4315,499.85256 2.9287,-14.3771 c 9.5847,4.0824 17.8826,6.12359 24.8936,6.12358 5.1474,10e-6 9.1188,-0.79872 11.9144,-2.39618 2.7511,-1.59745 4.1267,-3.81613 4.1268,-6.65607 -10e-5,-2.75115 -3.3059,-5.59107 -9.9176,-8.51977 l -6.057,-2.66243 c -7.5436,-3.328 -12.4025,-6.05698 -14.5768,-8.18696 -2.2187,-2.1299 -3.328,-5.23606 -3.328,-9.31849 0,-8.0316 3.2171,-14.42142 9.6513,-19.16948 6.3898,-4.7923 15.087,-7.18848 26.0918,-7.18855 6.656,7e-5 14.3992,0.86536 23.2296,2.59586 l -2.7289,13.51182 c -9.4073,-2.52924 -16.485,-3.79389 -21.2329,-3.79396 -4.6593,7e-5 -8.2979,0.73223 -10.9159,2.19651 -2.5738,1.46439 -3.8606,3.52777 -3.8606,6.19014 0,2.57373 3.0396,5.12522 9.1188,7.65448 l 5.2583,2.1965 c 8.1204,3.41682 13.4896,6.34549 16.1077,8.78601 2.8399,2.57371 4.2598,5.9683 4.2599,10.18378 -10e-5,7.85418 -3.5722,14.28837 -10.7163,19.3026 -7.1886,5.05861 -16.5736,7.58791 -28.1551,7.58792 -8.6529,-1e-5 -17.3502,-1.35341 -26.0918,-4.06021"
         style="font-style:italic;font-variant:normal;font-weight:bold;font-stretch:normal;fill:#ffffff;font-family:Luxi Sans;-inkscape-font-specification:Luxi Sans"
         id="path5469" />
    </g>
    <text
       xml:space="preserve"
       style="font-size:168.41470337px;font-style:normal;font-weight:normal;line-height:125%;letter-spacing:0px;word-spacing:0px;fill:#9d9d9d;fill-opacity:1;stroke:none;font-family:Sans"
       x="681.88068"
       y="741.05432"
       id="text2995"
       sodipodi:linespacing="125%"
       transform="scale(1.0003637,0.99963644)"><tspan
         sodipodi:role="line"
         id="tspan2997"
         x="681.88068"
         y="741.05432"
         style="font-style:italic;font-weight:bold">EX</tspan></text>
    <flowRoot
       xml:space="preserve"
       id="flowRoot3792"
       style="font-size:40px;font-style:normal;font-weight:normal;line-height:125%;letter-spacing:0px;word-spacing:0px;fill:#000000;fill-opacity:1;stroke:none;font-family:Sans"
       transform="translate(0,308.2677)"><flowRegion
         id="flowRegion3794"><rect
           id="rect3796"
           width="74.285713"
           height="85.714287"
           x="864.28571"
           y="214.09448" /></flowRegion><flowPara
         id="flowPara3798">aoeuuu</flowPara></flowRoot>    <text
       xml:space="preserve"
       style="font-size:40px;font-style:normal;font-weight:normal;line-height:125%;letter-spacing:0px;word-spacing:0px;fill:#000000;fill-opacity:1;stroke:none;font-family:Sans"
       x="20"
       y="264.09448"
       id="text3800"
       sodipodi:linespacing="125%"
       transform="translate(0,308.2677)"><tspan
         sodipodi:role="line"
         id="tspan3802"
         x="20"
         y="264.09448" /></text>
    <path
       sodipodi:type="arc"
       style="fill:#ffffff;fill-opacity:1;stroke:#606060;stroke-opacity:1"
       id="path5424"
       sodipodi:cx="38.92857"
       sodipodi:cy="233.3802"
       sodipodi:rx="25.357143"
       sodipodi:ry="25.357143"
       d="m 64.285713,233.3802 a 25.357143,25.357143 0 1 1 -50.714287,0 25.357143,25.357143 0 1 1 50.714287,0 z"
       transform="translate(22.142857,324.12187)" />
  </g>
</svg>
